<?xml version="1.0" standalone="no"?><!DOCTYPE svg PUBLIC "-//W3C//DTD SVG 1.1//EN" "http://www.w3.org/Graphics/SVG/1.1/DTD/svg11.dtd"><svg t="1697812287927" class="icon" viewBox="0 0 1028 1024" version="1.1" xmlns="http://www.w3.org/2000/svg" p-id="16526" xmlns:xlink="http://www.w3.org/1999/xlink" width="200.78125" height="200"><path d="M911.882465 1018.319924q-9.210934 4.093748-21.492179 6.652341t-25.585928 2.558593-26.609365-5.117186-25.585928-16.374994q-12.281245-12.281245-21.492179-22.003898t-16.374994-16.886712q-8.187497-8.187497-14.32812-15.351557l191.382739-191.382739q11.257808 12.281245 27.121083 29.167958t25.074209 28.144521q11.257808 14.32812 15.863275 29.679676t4.093748 30.19139499-4.605467 28.65623901-9.210934 24.050772q-11.257808 21.492179-39.402329 47.589826t-58.847634 40.425766zM412.445155 221.062416q6.140623 6.140623 29.167958 28.656239t56.80076 56.289041l74.710909 74.710909 82.898406 82.898406 220.038979 220.038979-192.406177 191.382739-220.038979-220.038979-82.898406-81.874969q-39.914047-40.937484-73.175753-73.687472t-54.753885-54.242167-24.562491-25.585928q-9.210934-10.234371-19.445305-23.53905401t-16.374994-27.63280199q-7.16406-14.32812-17.398431-41.960921t-19.957024-57.824197-16.886712-57.312478-9.210934-40.425766q-3.070311-27.632802 8.187497-36.843736t37.867173-5.117186q14.32812 2.046874 41.44920301 9.722653t56.28904099 16.374994 53.730448 16.886712 33.773425 13.304682q14.32812 6.140623 26.097646 13.816401t26.097646 22.003898z" p-id="16527"></path></svg>